<?xml version="1.0" encoding="UTF-8" standalone="no"?>
<!-- Created with Inkscape (http://www.inkscape.org/) -->

<svg
   width="15.526344mm"
   height="17.445206mm"
   viewBox="0 0 15.526344 17.445206"
   version="1.1"
   id="svg6242"
   xmlns="http://www.w3.org/2000/svg"
   xmlns:svg="http://www.w3.org/2000/svg">
  <defs
     id="defs6239">
    <clipPath
       clipPathUnits="userSpaceOnUse"
       id="clipPath11238">
      <path
         d="M 0,4403.782 H 720 V 0 H 0 Z"
         id="path11236" />
    </clipPath>
    <clipPath
       clipPathUnits="userSpaceOnUse"
       id="clipPath11254">
      <path
         d="M -73.68,1544.18 H 377.28 V 1206.74 H -73.68 Z"
         id="path11252" />
    </clipPath>
    <mask
       maskUnits="userSpaceOnUse"
       x="0"
       y="0"
       width="1"
       height="1"
       id="mask11260">
      <g
         id="g11268">
        <g
           clip-path="url(#clipPath11258)"
           id="g11266">
          <g
             id="g11264">
            <g
               transform="matrix(450.95999,0,0,337.43999,-73.68,1206.7418)"
               id="g11262" />
          </g>
        </g>
      </g>
    </mask>
    <clipPath
       clipPathUnits="userSpaceOnUse"
       id="clipPath11258">
      <path
         d="M -73.68,1544.18 H 377.28 V 1206.74 H -73.68 Z"
         id="path11256" />
    </clipPath>
  </defs>
  <g
     id="layer1"
     transform="translate(-68.050851,-151.63554)">
    <g
       id="g11232"
       transform="matrix(0.35277777,0,0,-0.35277777,-109.16871,675.42911)">
      <g
         id="g11234"
         clip-path="url(#clipPath11238)">
        <g
           id="g11240"
           transform="translate(527.6199,1442.6942)">
          <path
             d="m 0,0 10.126,5.847 c -0.03,0.095 -0.057,0.192 -0.081,0.289 h -26.61 C -16.579,6.079 -16.594,6.022 -16.611,5.965 L -6.434,0.09 c 0.801,0.831 1.926,1.348 3.175,1.348 C -1.967,1.438 -0.806,0.884 0,0 M -2.028,33.435 11.281,10.384 C 10.983,10.099 10.721,9.769 10.505,9.394 10.291,9.021 10.137,8.63 10.041,8.232 h -26.6 c -0.097,0.398 -0.251,0.789 -0.465,1.162 -0.216,0.372 -0.478,0.701 -0.775,0.984 l 13.312,23.056 c 0.39,-0.113 0.802,-0.173 1.228,-0.173 0.427,0 0.84,0.061 1.231,0.174 m -4.276,1.044 -13.312,-23.056 c -0.057,0.016 -0.115,0.032 -0.174,0.046 v 11.763 c 1.122,0.278 2.133,0.994 2.753,2.073 0.62,1.078 0.735,2.308 0.418,3.416 l 10.189,5.883 c 0.041,-0.042 0.083,-0.084 0.126,-0.125 m 6.21,0.12 10.193,-5.884 c -0.315,-1.107 -0.199,-2.334 0.419,-3.41 0.62,-1.079 1.631,-1.795 2.753,-2.073 V 11.471 C 13.214,11.457 13.157,11.441 13.1,11.425 L -0.212,34.482 c 0.04,0.038 0.08,0.078 0.118,0.117 m 1.06,1.809 10.168,-5.871 c 0.287,0.304 0.621,0.572 1,0.792 2.109,1.212 4.799,0.492 6.024,-1.616 1.212,-2.109 0.493,-4.799 -1.616,-6.024 -0.377,-0.217 -0.772,-0.371 -1.175,-0.468 V 11.475 C 15.765,11.378 16.156,11.224 16.529,11.01 18.651,9.785 19.37,7.095 18.145,4.987 16.933,2.878 14.231,2.158 12.122,3.37 11.702,3.612 11.337,3.912 11.032,4.255 L 0.925,-1.58 c 0.145,-0.437 0.223,-0.904 0.223,-1.389 0,-2.425 -1.97,-4.407 -4.407,-4.407 -2.438,0 -4.408,1.97 -4.408,4.407 0,0.433 0.063,0.852 0.179,1.247 l -10.166,5.869 c -0.283,-0.297 -0.613,-0.56 -0.986,-0.777 -2.122,-1.212 -4.812,-0.492 -6.024,1.617 -1.212,2.108 -0.492,4.798 1.616,6.023 0.373,0.215 0.764,0.369 1.162,0.465 v 11.746 c -0.402,0.097 -0.798,0.251 -1.174,0.468 -2.109,1.212 -2.829,3.915 -1.617,6.024 1.213,2.108 3.915,2.828 6.024,1.616 0.377,-0.219 0.71,-0.485 0.995,-0.787 l 10.172,5.873 c -0.118,0.397 -0.181,0.818 -0.181,1.253 0,2.437 1.97,4.407 4.408,4.407 2.437,0 4.407,-1.97 4.407,-4.407 0,-0.438 -0.064,-0.861 -0.182,-1.26"
             style="fill:#d7269c;fill-opacity:1;fill-rule:evenodd;stroke:none"
             id="path11242" />
        </g>
        <g
           id="g11244"
           transform="translate(451.5966,1478.5232)" />
        <g
           id="g11248">
          <g
             id="g11250" />
          <g
             id="g11280">
            <g
               clip-path="url(#clipPath11254)"
               opacity="0.350006"
               id="g11278">
              <g
                 id="g11276">
                <g
                   id="g11270" />
                <g
                   mask="url(#mask11260)"
                   id="g11274">
                  <g
                     transform="matrix(450.95999,0,0,337.43999,-73.68,1206.7418)"
                     id="g11272" />
                </g>
              </g>
            </g>
          </g>
        </g>
      </g>
    </g>
  </g>
</svg>
