<?xml version="1.0" encoding="UTF-8" standalone="no"?>
<!-- Created with Inkscape (http://www.inkscape.org/) -->

<svg
   width="21.152729mm"
   height="17.274734mm"
   viewBox="0 0 21.152729 17.274734"
   version="1.1"
   id="svg6242"
   xmlns="http://www.w3.org/2000/svg"
   xmlns:svg="http://www.w3.org/2000/svg">
  <defs
     id="defs6239" />
  <g
     id="layer1"
     transform="translate(-16.086617,-150.32746)">
    <path
       d="m 31.24987,152.53105 c 0.79375,0.1083 1.347964,0.84032 1.239308,1.63407 -0.108302,0.79375 -0.839964,1.34972 -1.633714,1.24142 -0.793397,-0.10865 -1.349375,-0.84032 -1.239308,-1.63407 0.110067,-0.79375 0.839964,-1.34972 1.633714,-1.24142 m 4.365625,3.07516 c 0.09666,0.0879 0.189442,0.17921 0.280811,0.27729 0.18415,0.19791 0.358069,0.42192 0.521406,0.67133 0.551038,0.84738 0.833261,1.97838 0.821266,3.08575 -0.01199,1.0862 -0.3048,2.16747 -0.903816,2.96298 -0.390878,0.51823 -0.891823,0.94192 -1.492603,1.27776 -0.411339,0.23072 -0.874536,0.42192 -1.379008,0.57679 v -1.33455 c 0.271991,-0.10125 0.525286,-0.2152 0.757766,-0.34432 0.452614,-0.25294 0.822678,-0.56127 1.099961,-0.93133 0.430389,-0.57326 0.642056,-1.38465 0.650522,-2.21615 0.01058,-0.87277 -0.202847,-1.74942 -0.617713,-2.38619 -0.118887,-0.1845 -0.249767,-0.3496 -0.38735,-0.49777 -0.05362,-0.0568 -0.106892,-0.11006 -0.161925,-0.16192 0.0085,-0.0861 0.01199,-0.17392 0.0067,-0.26176 0.132645,-0.0515 0.25647,-0.12206 0.368653,-0.20814 l 0.0049,-0.004 c 0.177447,-0.13617 0.325261,-0.30833 0.430389,-0.50624 m -9.108369,-3.30588 c -0.315031,-0.024 -0.633589,-0.0208 -0.94862,0.0102 -0.96908,0.0931 -1.910644,0.44591 -2.688872,1.05058 -0.900642,0.69708 -1.583972,1.7406 -1.847144,3.12314 l -0.0829,0.43215 -0.430389,0.0759 c -0.421569,0.0741 -0.798689,0.17568 -1.129242,0.3048 -0.319969,0.12382 -0.606072,0.27728 -0.855486,0.4579 -0.199672,0.14464 -0.371827,0.30657 -0.51823,0.48225 -0.452614,0.54222 -0.66287,1.22238 -0.657578,1.911 0.0053,0.6992 0.232481,1.40511 0.652286,1.98543 0.156986,0.2152 0.337608,0.4131 0.544336,0.58526 0.209903,0.17392 0.445558,0.31856 0.710847,0.42721 0.149578,0.0617 0.309739,0.1136 0.476956,0.15487 v 1.28976 c -0.344311,-0.0621 -0.661106,-0.15487 -0.957439,-0.27729 -0.390525,-0.16192 -0.7366,-0.37041 -1.0414,-0.62512 -0.289278,-0.24094 -0.542219,-0.5147 -0.757414,-0.8128 -0.573264,-0.79198 -0.883355,-1.75965 -0.890058,-2.72379 -0.0071,-0.97438 0.29598,-1.94381 0.950383,-2.72909 0.211667,-0.25471 0.461434,-0.48895 0.746831,-0.69568 0.332316,-0.24095 0.712964,-0.44415 1.143352,-0.61101 0.295981,-0.11536 0.612775,-0.21202 0.946856,-0.28928 0.378531,-1.50495 1.186039,-2.66383 2.223911,-3.46781 0.971197,-0.75247 2.13995,-1.19133 3.343275,-1.30704 0.631825,-0.06 1.272469,-0.0325 1.899003,0.0847 -0.01376,0.0568 -0.02575,0.11359 -0.03281,0.17216 l -0.0018,0.0102 c -0.01199,0.0981 -0.01729,0.19614 -0.01199,0.29598 -0.132644,0.0519 -0.256469,0.12241 -0.3683,0.20849 l -0.0053,0.004 c -0.166863,0.12558 -0.308327,0.28751 -0.413102,0.47342 m 2.954161,6.74264 h 2.669822 v 0.70239 h -0.894997 v 2.13853 h -0.878064 v -2.13853 h -0.896761 z m -2.704747,1.90077 0.833261,-0.0515 c 0.01729,0.13582 0.05503,0.23777 0.110419,0.30832 0.09102,0.1136 0.220133,0.17216 0.38735,0.17216 0.123825,0 0.221897,-0.0293 0.288925,-0.0878 0.06738,-0.0586 0.1016,-0.12736 0.1016,-0.20497 0,-0.0741 -0.03245,-0.13934 -0.09631,-0.1979 -0.06385,-0.0586 -0.213431,-0.11219 -0.449439,-0.16546 -0.383822,-0.0861 -0.657578,-0.20143 -0.822678,-0.34431 -0.165453,-0.14287 -0.248003,-0.32526 -0.248003,-0.54751 0,-0.1464 0.04304,-0.28399 0.127353,-0.4131 0.08431,-0.12947 0.211667,-0.23248 0.382411,-0.30657 0.170392,-0.0741 0.402872,-0.11042 0.698853,-0.11042 0.363361,0 0.638528,0.0674 0.829733,0.2032 0.189442,0.13618 0.303036,0.34961 0.33902,0.64559 l -0.824442,0.0501 c -0.02258,-0.12911 -0.06914,-0.22401 -0.137936,-0.28046 -0.07056,-0.0589 -0.168628,-0.0878 -0.290689,-0.0878 -0.1016,0 -0.179211,0.0222 -0.230717,0.0653 -0.05186,0.043 -0.07761,0.0963 -0.07761,0.15839 0,0.0448 0.02258,0.0843 0.06385,0.12242 0.04127,0.036 0.137583,0.072 0.292453,0.10477 0.384175,0.0829 0.659342,0.16722 0.824794,0.25153 0.1651,0.0843 0.287514,0.18944 0.361597,0.31503 0.0755,0.12418 0.113595,0.26529 0.113595,0.42016 0,0.18239 -0.05009,0.3496 -0.151695,0.50271 -0.09984,0.15346 -0.240947,0.27023 -0.421569,0.3496 -0.180975,0.0794 -0.408164,0.11889 -0.683683,0.11889 -0.481895,0 -0.817739,-0.0931 -1.003653,-0.27905 -0.185914,-0.18944 -0.290689,-0.4251 -0.316794,-0.7112 m -2.601031,-1.90077 h 2.349853 v 0.60608 h -1.468614 v 0.45296 h 1.361722 v 0.57856 h -1.361722 v 0.5595 h 1.511653 v 0.64206 h -2.392892 z m -2.079625,1.15359 h 0.370064 c 0.03951,0 0.117122,-0.0138 0.232481,-0.0395 0.05856,-0.012 0.106891,-0.0413 0.142875,-0.0896 0.03775,-0.0483 0.05503,-0.10336 0.05503,-0.1651 0,-0.0914 -0.02928,-0.16369 -0.08784,-0.21202 -0.05856,-0.0497 -0.166864,-0.0741 -0.327025,-0.0741 H 22.0758 Z m 8.862483,2.7238 h 1.451328 v 4.68171 h -1.451328 z m -3.10903,2.00095 h 0.356305 c 0.280459,0 0.478367,-0.0483 0.591961,-0.1464 0.113595,-0.0963 0.170745,-0.22225 0.170745,-0.37183 0,-0.1464 -0.05009,-0.27199 -0.148167,-0.37359 -0.09807,-0.1016 -0.283986,-0.15346 -0.555978,-0.15346 h -0.414866 z m -1.451328,-2.00095 h 2.40665 c 0.524933,0 0.917575,0.12417 1.177572,0.37359 0.259997,0.24976 0.390525,0.60642 0.390525,1.06609 0,0.47343 -0.142875,0.84349 -0.426861,1.11055 -0.283986,0.2667 -0.719314,0.39934 -1.303161,0.39934 h -0.793397 v 1.73214 h -1.451328 z m -2.394656,2.8963 -0.511174,-1.68416 -0.512939,1.68416 z m 0.306564,1.01424 h -1.639005 l -0.236008,0.77117 h -1.476728 l 1.761066,-4.68171 h 1.58362 l 1.754364,4.68171 h -1.515181 z m -3.095272,-4.94701 v -2.84092 h 1.46297 c 0.272344,0 0.478719,0.0222 0.621594,0.0706 0.142875,0.0466 0.259997,0.13264 0.346075,0.25823 0.08784,0.12736 0.132644,0.28081 0.132644,0.46144 0,0.15663 -0.03457,0.29457 -0.101599,0.40816 -0.06738,0.11536 -0.160162,0.20849 -0.277284,0.27905 -0.07408,0.0448 -0.177094,0.0825 -0.307975,0.11183 0.104775,0.036 0.180622,0.0688 0.227189,0.10477 0.03281,0.0243 0.07902,0.0744 0.139347,0.14993 0.06033,0.0759 0.1016,0.13618 0.122061,0.17745 l 0.427214,0.82127 H 22.99514 l -0.468136,-0.86607 c -0.06033,-0.11183 -0.112183,-0.18592 -0.158397,-0.21872 -0.06385,-0.043 -0.136173,-0.0653 -0.215195,-0.0653 h -0.07761 v 1.15006 h -0.881239 z m 12.587464,-10.3325 0.445911,0.58702 c 0.117122,0.15522 0.08784,0.37712 -0.06703,0.49424 l -0.473428,0.35983 c 0.08608,0.22896 0.141111,0.47343 0.163336,0.7232 l 0.539045,0.0741 c 0.192617,0.0257 0.327025,0.20496 0.301272,0.39758 l -0.09984,0.73202 c -0.02611,0.19261 -0.204964,0.32878 -0.397933,0.30127 l -0.588434,-0.0811 c -0.105127,0.22895 -0.239536,0.43921 -0.397933,0.62688 l 0.330553,0.43392 c 0.117122,0.15487 0.08608,0.37712 -0.06879,0.49424 l -0.587022,0.44591 c -0.154869,0.11713 -0.377119,0.0861 -0.493889,-0.0674 l -0.359833,-0.47342 c -0.230717,0.0861 -0.473428,0.14111 -0.724959,0.16368 l -0.07408,0.53905 c -0.02575,0.19262 -0.204611,0.32702 -0.39758,0.30127 l -0.731662,-0.0998 c -0.192616,-0.0261 -0.327025,-0.20497 -0.301272,-0.39794 l 0.08114,-0.58878 c -0.227542,-0.10513 -0.439208,-0.23954 -0.626886,-0.39617 l -0.433564,0.32914 c -0.155222,0.11677 -0.377119,0.0878 -0.494241,-0.0674 l -0.445912,-0.58702 c -0.117122,-0.15487 -0.08784,-0.37712 0.06703,-0.49425 l 0.473428,-0.35983 c -0.08608,-0.23072 -0.141111,-0.47343 -0.163336,-0.72319 l -0.539045,-0.0741 c -0.192616,-0.0257 -0.328788,-0.20496 -0.301272,-0.39758 l 0.09984,-0.73201 c 0.02752,-0.19262 0.204964,-0.32703 0.397934,-0.30127 l 0.588786,0.0811 c 0.104775,-0.22718 0.239183,-0.4392 0.395816,-0.62688 l -0.328788,-0.43392 c -0.117123,-0.1531 -0.08784,-0.37535 0.06703,-0.49248 l 0.587022,-0.44591 c 0.15487,-0.11712 0.37712,-0.0878 0.494242,0.0674 l 0.359833,0.47343 c 0.228953,-0.0861 0.473428,-0.14111 0.722842,-0.16369 l 0.07408,-0.53904 c 0.02575,-0.19262 0.204964,-0.32879 0.397581,-0.30304 l 0.731661,0.10019 c 0.19297,0.0257 0.328789,0.20461 0.301272,0.39758 l -0.08079,0.58879 c 0.228953,0.10513 0.438856,0.23953 0.628297,0.39793 l 0.433917,-0.32914 c 0.15487,-0.11853 0.376767,-0.0892 0.495653,0.0656"
       style="fill:#4ebae9;fill-opacity:1;fill-rule:evenodd;stroke:none;stroke-width:0.352778"
       id="path11246" />
  </g>
</svg>
